PathFileType  4	(X/Y/Z) C:\Users\antoi\Documents\MyRepositories\mobilecap\ResultsAnalysis
DataRate	CameraRate	NumFrames	NumMarkers	Units	OrigDataRate	OrigDataStartFrame	OrigNumFrames
100.0	100.0	5	51	mm	100.0	161	1280
Frame#	Time	r_knee			r_shank_antsup			r_ankle			r_calc			r_5meta			r_toe			L_knee			L_shank_antsup			L_ankle			L_calc			L_5meta			L_toe			r_sh2			r_sh3			r_sh4			L_sh2			L_sh3			r_thigh1			r_thigh2			r_thigh3			r_thigh4			r_thigh5			L_thigh1			L_thigh2			L_thigh3			L_thigh4			r.ASIS			r.PSIS			L.ASIS			L.PSIS			C7			R_Shoulder			L_Shoulder			R_Sternum			L_Sternum			R_humerus			R_elbow_med			R_elbow_lat			R_forearm			R_wrist_radius			R_wrist_ulna			L_humerus			L_elbow_med			L_elbow_lat			L_forearm			L_wrist_radius			L_wrist_ulna			R_HJC			L_HJC			R_HJC_reg			L_HJC_reg			
		X1	Y1	Z1	X2	Y2	Z2	X3	Y3	Z3	X4	Y4	Z4	X5	Y5	Z5	X6	Y6	Z6	X7	Y7	Z7	X8	Y8	Z8	X9	Y9	Z9	X10	Y10	Z10	X11	Y11	Z11	X12	Y12	Z12	X13	Y13	Z13	X14	Y14	Z14	X15	Y15	Z15	X16	Y16	Z16	X17	Y17	Z17	X18	Y18	Z18	X19	Y19	Z19	X20	Y20	Z20	X21	Y21	Z21	X22	Y22	Z22	X23	Y23	Z23	X24	Y24	Z24	X25	Y25	Z25	X26	Y26	Z26	X27	Y27	Z27	X28	Y28	Z28	X29	Y29	Z29	X30	Y30	Z30	X31	Y31	Z31	X32	Y32	Z32	X33	Y33	Z33	X34	Y34	Z34	X35	Y35	Z35	X36	Y36	Z36	X37	Y37	Z37	X38	Y38	Z38	X39	Y39	Z39	X40	Y40	Z40	X41	Y41	Z41	X42	Y42	Z42	X43	Y43	Z43	X44	Y44	Z44	X45	Y45	Z45	X46	Y46	Z46	X47	Y47	Z47	X48	Y48	Z48	X49	Y49	Z49	X50	Y50	Z50	X51	Y51	Z51	

161	1.60000000	-84.42863	379.95936	-308.77900	-70.76155	274.22066	-342.89255	-275.47714	89.39046	-385.18410	-332.92470	53.68721	-438.62307	-183.75238	39.01455	-335.24965	-141.51802	55.10616	-373.62327	-131.33115	429.10336	-794.45195	-86.67179	310.09815	-780.53020	-286.72622	97.00133	-803.09488	-335.16554	54.23204	-759.63044	-181.10842	38.78998	-850.03624	-134.78903	53.79942	-800.56176	-139.53723	186.92268	-371.18120	-121.60000	295.23630	-290.30467	-199.93640	218.31508	-323.95364	-140.64333	365.43462	-828.08056	-205.99743	263.69458	-845.95461	-332.95793	537.53926	-301.41327	-232.90581	513.96761	-300.08779	-222.50639	452.09739	-268.03591	-362.76704	432.20355	-274.82572	-250.92144	404.54797	-274.07252	-365.61729	550.88675	-691.84786	-242.00637	531.68552	-731.70127	-414.36847	456.60465	-733.38780	-279.91960	437.47208	-776.33010	-316.74420	505.57375	-366.40330	-446.39878	626.07330	-434.07445	-305.77509	520.18239	-609.40455	-445.73427	630.32266	-538.94514	-79.54596	886.93716	-453.62274	-27.00314	825.09173	-312.53748	0.22131	832.84886	-589.79624	-3.40518	770.57112	-430.00251	0.26451	768.41358	-469.07751	6.76269	736.35665	-241.51024	-7.97893	522.83451	-202.50477	47.67750	575.99558	-162.70805	84.51359	634.98373	-262.95261	93.15056	677.86427	-354.36609	130.62919	670.85304	-348.47155	64.13653	736.11191	-654.40836	76.44737	537.14801	-705.26539	134.43395	584.97670	-732.29664	145.48621	626.45168	-630.37211	109.45734	657.81340	-517.05507	141.65211	655.32945	-511.11457	-422.74016	481.20570	-395.67295	-413.95707	487.55264	-584.73937	-407.08191	482.26458	-401.96073	-406.06378	488.77609	-562.65984	
162	1.61000000	-84.68610	379.64024	-307.67416	-70.95051	274.00847	-342.03557	-275.63310	89.57849	-384.83799	-332.93563	53.69396	-438.62214	-183.74375	39.02042	-335.20725	-141.54666	55.07270	-373.57101	-131.89135	429.12227	-794.77125	-86.86781	310.14855	-780.67367	-286.77624	96.95618	-803.11493	-335.17982	54.00434	-759.44086	-181.13088	38.79767	-850.03147	-134.81973	53.84684	-800.58009	-139.60281	186.74729	-370.78417	-121.91216	294.88079	-289.39647	-200.01928	217.77891	-323.21052	-140.90361	365.38701	-828.19787	-206.25028	263.54953	-846.06383	-334.06749	535.85278	-300.91856	-233.10800	511.86260	-299.74419	-223.25724	451.02891	-267.28301	-363.41110	430.41659	-274.39518	-251.33146	403.19598	-273.56789	-366.68073	549.15771	-691.54281	-243.01799	530.65973	-731.53844	-414.93024	454.95873	-733.75486	-280.50711	436.31673	-776.29435	-317.57146	503.97038	-366.48573	-447.04699	623.95139	-434.40902	-307.19553	516.98570	-609.39127	-446.47472	627.93522	-539.09478	-78.52923	883.95298	-453.46469	-26.85501	821.89563	-312.64690	0.65709	828.71779	-589.95411	-3.45575	766.91676	-430.10975	0.37926	764.82855	-469.09951	6.72456	733.44308	-241.40030	-7.45189	519.76912	-202.74851	47.93995	573.17308	-162.55353	85.25314	632.11852	-262.83076	94.14744	675.11203	-354.16050	131.67042	668.08132	-348.16300	64.23662	731.64367	-654.46233	76.36617	532.57753	-704.13463	134.21610	580.16250	-731.80670	145.96114	622.32496	-630.35516	110.60030	654.33369	-516.64653	142.84444	651.80684	-511.13347	-423.60898	479.47808	-395.21023	-415.30093	484.77124	-584.33082	-408.03052	480.03255	-401.90789	-407.15278	486.14301	-562.48353	
163	1.62000000	-85.03110	379.45435	-306.61378	-71.15597	273.89590	-341.29224	-275.53588	89.44878	-384.93523	-332.97753	53.72052	-438.58541	-183.73559	39.02122	-335.17264	-141.60097	55.06211	-373.52678	-132.28409	429.12082	-794.81289	-86.95916	310.32388	-780.83129	-286.81241	96.97746	-803.11351	-335.15386	54.03772	-759.46015	-181.12825	38.80622	-850.02135	-134.82389	53.88309	-800.58628	-139.68362	186.56327	-370.42636	-122.17582	294.56077	-288.73335	-200.10583	217.33442	-322.18134	-141.12064	365.27452	-828.20105	-206.39390	263.51199	-846.01100	-335.17865	534.40447	-300.57438	-233.45911	510.39452	-299.17746	-223.97408	450.15399	-266.54902	-364.01829	428.77615	-274.14046	-251.83675	402.13048	-272.91368	-367.69387	547.60293	-691.05752	-243.86234	529.79913	-731.34249	-415.42383	453.53647	-734.08566	-281.04859	435.45353	-776.25026	-317.93799	502.74891	-366.58989	-447.56194	622.04879	-434.43664	-308.38087	514.53626	-609.38743	-447.15880	625.91445	-538.99669	-77.57344	881.82609	-453.83999	-26.75935	819.10060	-312.75345	0.86739	825.09412	-590.06095	-3.38096	763.79969	-430.13036	0.40210	761.60373	-469.25892	6.73953	730.91992	-241.33210	-7.04343	517.14217	-202.86041	48.18452	570.67718	-162.50905	85.86532	629.67925	-262.67266	94.92032	672.73243	-353.92550	132.41069	665.71478	-347.73593	64.23782	727.72142	-654.45615	76.13331	528.82125	-703.31276	133.91885	575.98822	-731.20580	146.31130	618.74132	-630.02999	111.55332	651.38367	-515.96770	143.79615	648.78100	-510.75687	-423.99189	477.95580	-394.71098	-416.32955	482.48663	-583.87980	-408.51297	478.04374	-401.84838	-407.89394	483.97557	-562.29606	
164	1.63000000	-85.37048	379.31090	-305.78733	-71.32772	273.83504	-340.80507	-275.17413	88.85824	-385.59443	-332.97097	53.72529	-438.56368	-183.74982	38.99094	-335.16898	-141.63266	55.08384	-373.50644	-132.59310	429.08084	-794.67036	-87.02549	310.45226	-780.84611	-286.82862	97.02001	-803.10129	-335.17030	54.27008	-759.67841	-181.11635	38.81446	-850.00779	-134.82356	53.89373	-800.58787	-139.73585	186.45170	-370.16915	-122.41245	294.29687	-288.34742	-200.26318	217.17812	-321.41096	-141.26576	365.11635	-828.23102	-206.48437	263.62859	-845.95282	-336.10645	533.09278	-300.38846	-234.28373	509.79513	-298.48105	-224.63335	449.42521	-265.91976	-364.53452	427.34135	-273.86342	-252.34088	401.30043	-272.20260	-368.48351	546.40421	-690.55239	-244.50457	529.27639	-731.26472	-415.87672	452.22948	-733.84839	-281.44599	434.92922	-776.29304	-318.02408	501.79241	-366.52699	-448.01142	620.32230	-434.04986	-309.29651	512.77870	-609.35416	-447.77052	624.23975	-538.71620	-77.53543	879.70168	-454.24770	-26.70707	816.73453	-312.91422	0.95272	822.06992	-590.26387	-3.28344	761.28850	-430.04581	0.31822	758.86615	-469.40885	6.85450	728.71134	-241.41151	-6.74298	515.12250	-202.77001	48.37749	568.52647	-162.66764	86.22832	627.69858	-262.37741	95.50886	670.78137	-353.66303	132.95963	663.76527	-347.32400	64.14126	724.36476	-654.46587	76.16001	524.94012	-701.13527	133.53999	572.51959	-730.55502	146.52274	615.66968	-629.43147	112.36471	649.15309	-515.55854	144.53367	646.46489	-510.22300	-424.05161	476.57880	-394.16245	-417.04409	480.67362	-583.36619	-408.71512	476.20770	-401.69508	-408.34548	482.21186	-562.11536	
165	1.64000000	-85.64242	379.16926	-305.22903	-71.46155	273.79364	-340.46788	-274.92065	88.41292	-386.09047	-332.93961	53.69704	-438.60445	-183.76616	38.97343	-335.14314	-141.62369	55.09025	-373.50234	-132.82659	429.14081	-794.53904	-87.08658	310.40371	-780.64594	-286.83390	97.07124	-803.07444	-335.21357	54.43215	-759.82917	-181.10184	38.82642	-849.99474	-134.82890	53.87785	-800.57900	-139.78791	186.44934	-369.97042	-122.66151	294.14761	-288.03254	-200.44159	217.15318	-321.09202	-141.38893	365.12309	-828.31390	-206.57236	263.82099	-845.91097	-336.77139	531.96484	-300.12761	-235.06328	509.25947	-297.96499	-225.20757	448.75112	-265.43050	-364.94547	426.19603	-273.52524	-252.70616	400.51342	-271.75527	-369.03365	545.58412	-690.15024	-245.00469	529.03929	-731.34036	-416.26324	451.22954	-733.35373	-281.76155	434.53826	-776.21381	-318.17925	501.19165	-366.27822	-448.48024	618.92792	-433.61936	-310.05325	511.32607	-609.07232	-448.30629	622.87408	-538.34098	-78.73455	877.09596	-454.24305	-26.68903	814.82317	-313.13993	0.87744	819.60718	-590.47620	-3.40817	759.25717	-430.20662	0.18114	756.78923	-469.47112	7.02992	726.85935	-241.60827	-6.55544	513.51241	-202.68827	48.50899	566.81847	-162.81069	86.45762	626.34201	-261.91626	95.91727	669.30408	-353.35966	133.39042	662.30245	-347.01355	63.89320	721.66695	-654.38281	76.29736	521.38264	-699.08769	133.15091	569.67056	-729.90927	146.60413	613.21700	-628.77382	112.92591	647.56650	-515.29677	145.09634	644.90945	-509.87829	-424.15157	475.54325	-393.49440	-417.62195	479.16320	-582.72477	-408.93697	474.72398	-401.42186	-408.67071	480.76672	-561.78129	
